<?xml version="1.0" encoding="UTF-8" standalone="no"?>
<!DOCTYPE svg PUBLIC "-//W3C//DTD SVG 1.1//EN" "http://www.w3.org/Graphics/SVG/1.1/DTD/svg11.dtd">
<svg width="100%" height="100%" viewBox="0 0 9684 4907" version="1.1" xmlns="http://www.w3.org/2000/svg" xmlns:xlink="http://www.w3.org/1999/xlink" xml:space="preserve" xmlns:serif="http://www.serif.com/" style="fill-rule:evenodd;clip-rule:evenodd;stroke-linejoin:round;stroke-miterlimit:2;">
    <g transform="matrix(1,0,0,1,-2224,-2338)">
        <g transform="matrix(4.66479,0,0,15.0203,-2891.95,0)">
            <g transform="matrix(0.214372,0,0,0.0665764,620.662,0.220188)">
                <path d="M4124.58,3889.54C3955.78,3813.5 3768.53,3771.34 3571.51,3771.34C2826,3771.34 2220.74,4376.6 2220.74,5122.11C2220.74,5867.61 2826,6472.87 3571.51,6472.87C4020.18,6472.87 4417.96,6253.49 4663.67,5916.38C4735.7,5817.56 4845.58,5753.16 4966.98,5738.6C5088.39,5724.05 5210.38,5760.65 5303.72,5839.63C5650.34,6132.95 6098.91,6309.83 6588.58,6309.83C7012.69,6309.83 7406,6177.19 7728.93,5950.97C7837.23,5875.1 7973.9,5851.93 8101.15,5887.88C8228.4,5923.83 8332.75,6015.08 8385.34,6136.4C8667.14,6786.46 9315.53,7241.69 10069.6,7241.69C11082,7241.69 11904,6421.32 11904,5410.65C11904,4399.98 11082,3579.6 10069.6,3579.6C9714.51,3579.6 9382.81,3680.46 9101.99,3855.35C8989.72,3925.27 8851.95,3940.99 8726.81,3898.18C8601.67,3855.36 8502.41,3758.54 8456.5,3634.5C8175.83,2876.19 7445.05,2335.05 6588.58,2335.05C5730.02,2335.05 4997.76,2878.81 4718.62,3639.8C4676.53,3754.54 4588.63,3846.62 4475.97,3893.98C4363.3,3941.35 4236.02,3939.74 4124.58,3889.54L4124.58,3889.54Z" style="fill:url(#_Linear1);"/>
            </g>
        </g>
    </g>
    <defs>
        <linearGradient id="_Linear1" x1="0" y1="0" x2="1" y2="0" gradientUnits="userSpaceOnUse" gradientTransform="matrix(9683.25,0,0,4906.64,2220.74,4788.37)"><stop offset="0" style="stop-color:rgb(142,64,255);stop-opacity:0.75"/><stop offset="0.45" style="stop-color:rgb(101,99,255);stop-opacity:0.75"/><stop offset="1" style="stop-color:rgb(0,186,255);stop-opacity:0.75"/></linearGradient>
    </defs>
</svg>
