<?xml version="1.0" encoding="UTF-8" standalone="no"?>
<!DOCTYPE svg PUBLIC "-//W3C//DTD SVG 1.1//EN" "http://www.w3.org/Graphics/SVG/1.1/DTD/svg11.dtd">
<svg width="100%" height="100%" viewBox="0 0 866 887" version="1.1" xmlns="http://www.w3.org/2000/svg" xmlns:xlink="http://www.w3.org/1999/xlink" xml:space="preserve" xmlns:serif="http://www.serif.com/" style="fill-rule:evenodd;clip-rule:evenodd;stroke-linecap:round;stroke-linejoin:round;stroke-miterlimit:1.5;">
    <g transform="matrix(1,0,0,1,-14892,-2625)">
        <g transform="matrix(4.66479,0,0,3.75508,5633.34,0)">
            <g transform="matrix(0.214372,0,0,0.266306,-1207.63,0)">
                <path d="M15674,2778.07C15674,2778.07 15546,2632.29 15467.7,2635.84C15389.5,2639.4 15798.4,3183.4 15741.5,3279.4C15684.6,3375.4 15368.2,2955.84 15279.3,2987.84C15190.4,3019.84 15528.2,3432.14 15432.2,3449.99C15336.2,3467.84 15158.8,3178.95 15103.5,3218.51C15048.2,3258.07 15201.1,3478.51 15147.7,3499.84C15114.9,3512.97 15071,3430.26 15016.5,3411.22C14982.5,3399.32 14943.4,3435.91 14903.1,3463.41C14954.2,3466.35 14972.8,3471.57 14972.8,3471.57L14903.1,3463.41L14911.7,3396.26" style="fill:none;stroke:white;stroke-width:20.83px;"/>
            </g>
        </g>
    </g>
</svg>
