<?xml version="1.0" encoding="UTF-8" standalone="no"?>
<!DOCTYPE svg PUBLIC "-//W3C//DTD SVG 1.1//EN" "http://www.w3.org/Graphics/SVG/1.1/DTD/svg11.dtd">
<svg width="100%" height="100%" viewBox="0 0 342 1785" version="1.1" xmlns="http://www.w3.org/2000/svg" xmlns:xlink="http://www.w3.org/1999/xlink" xml:space="preserve" xmlns:serif="http://www.serif.com/" style="fill-rule:evenodd;clip-rule:evenodd;stroke-linecap:round;stroke-linejoin:round;stroke-miterlimit:1.5;">
    <g transform="matrix(1,0,0,1,-14772,-1578)">
        <g transform="matrix(4.66479,0,0,3.75508,5633.34,0)">
            <g transform="matrix(0.214372,0,0,0.266306,-1207.63,0)">
                <path d="M14887,1588.6C14887,1588.6 14762.6,1877.21 14842.6,2019.43C14922.6,2161.66 15150.9,2268.68 15071.3,2450.72C15048.5,2491.68 14981.5,2476.24 14981.5,2428.52C14981.5,2380.8 15024,2377.46 15041.7,2382.71C15059.3,2387.96 15169.7,2443.26 15043.8,2677.44C14919.2,2858.03 14812.5,2906.32 14866.2,3090.08C14887,3161.31 14913,3225.88 14900.1,3261.51C14883.4,3307.32 14819.7,3313.66 14782.6,3313.28L14822.5,3258.12L14782.6,3313.28L14841.1,3352.57" style="fill:none;stroke:white;stroke-width:20.83px;"/>
            </g>
        </g>
    </g>
</svg>
